<svg xmlns="http://www.w3.org/2000/svg" version="1.1" xml:space="preserve"
     height='100px' 
     width='100px'
     fill="#ffc926" 
     x="0px" 
     y="0px" 
     viewBox="0 0 100 100" 
     enable-background="new 0 0 100 100">
     <path fill="#ffc926" d="M82.3,28.4c-0.5-0.1-0.9-0.2-1.4-0.2c-2.5,0-4.7,1.6-5.5,4.2l-2.9,13.6c-0.1,0.6-0.9,0.5-1,0l-6-36.1  c-0.5-3.1-3.2-5.3-6.2-5c-2.9,0.3-5,2.8-5,5.8c0,0.2,0,0.4,0,0.6l2.2,22.4c0.1,0.7-0.9,0.8-1,0.2L49.4,7.2c-0.7-3-3.5-4.9-6.3-4.2  c-2.5,0.5-4.2,2.8-4.2,5.4c0,0.3,0,0.6,0.1,1l4.6,28.5c0.1,0.6-0.8,0.9-1,0.2l-7.3-23.3c-0.9-2.7-3.6-4.2-6.2-3.5  c-2.3,0.6-3.7,2.8-3.7,5.1c0,0.4,0.1,0.9,0.2,1.3l6.4,26.5c0.1,0.5-0.7,0.8-0.8,0.2l-4.3-13.4c-1.1-2.7-4.1-3.9-6.6-2.9l0,0  c-2.6,1.1-3.4,4.1-2.8,6.9c2.2,9.3,5.1,21.8,7.1,26.6C28.1,70.8,37.6,78,41.8,81c1.4,0.9,2.3,2.4,2.7,4l2.2,10.3  c0.3,1.4,1.6,2.4,3,2.4h24.8c2,0,3.5-1.9,3-3.9l-3.4-12.5c-0.5-2-0.1-4.1,1.1-5.7c3.3-4.2,9.4-13.2,10.4-22.2l1.1-18.2  C87.1,32.1,85.2,29.2,82.3,28.4z M56.4,75.3C44,68.9,38.2,64.8,36.6,57.8c-0.9-4.2,1.7-8.3,5.9-9.3c0,0,0,0,0,0c0,0,0,0,0,0  c4.1-0.9,8.3,1.7,9.2,5.9c-0.9-4.2,1.7-8.3,5.8-9.2c0,0,0,0,0,0c0,0,0,0,0,0c4.2-0.9,8.3,1.7,9.3,5.9C68.4,57.9,64.4,64.7,56.4,75.3  z" />
</svg>